<?xml version="1.0" standalone="no"?><!DOCTYPE svg PUBLIC "-//W3C//DTD SVG 1.1//EN" "http://www.w3.org/Graphics/SVG/1.1/DTD/svg11.dtd"><svg class="icon" height="512" viewBox="0 0 1024 1024" version="1.1" xmlns="http://www.w3.org/2000/svg"><path d="M917.504 891.392C896.512 748.544 801.792 629.76 672.768 574.976c76.288-51.2 125.952-138.24 125.952-236.544 0-157.696-128.512-285.696-286.72-285.696s-286.72 128-286.72 285.696c0 98.304 50.176 185.344 125.952 236.544-129.024 54.784-223.744 173.568-244.736 316.416-2.56 5.632-4.096 11.776-4.096 17.92 0 22.528 18.432 40.96 40.96 40.96s40.96-18.432 40.96-40.96v40.96c0-180.224 146.944-326.656 327.68-326.656s327.68 145.92 327.68 326.656v-40.96c0 22.528 18.432 40.96 40.96 40.96s40.96-18.432 40.96-40.96c0-6.144-1.536-12.288-4.096-17.92zM512 542.208c-113.152 0-204.8-91.136-204.8-203.776 0-112.64 91.648-204.288 204.8-204.288s204.8 91.136 204.8 204.288S625.152 542.208 512 542.208z" fill="#FFFFFF" /></svg>